# xmcd
#
# Track frame offsets: 
#        150
#        20030
#        38040
#        61660
#        76842
#        91367
#        99520
#        115185
#        136810
#        144500
#
# Disc length: 2266 seconds
#
# Revision: 2
# Processed by: cddbd v1.5.2PL0 Copyright (c) Steve Scherf et al.
# Submitted via: ExactAudioCopy v0.99pb5
#
DISCID=7708d80a
DTITLE=Joe Satriani - Surfing With The Alien
DYEAR=1987
DGENRE=Instrumental Rock
TTITLE0=Surfing With The Alien
TTITLE1=Ice 9
TTITLE2=Crushing Day
TTITLE3=Always With Me, Always With You
TTITLE4=Satch Boogie
TTITLE5=Hill Of The Skull
TTITLE6=Circles
TTITLE7=Lords Of Karma
TTITLE8=Midnight
TTITLE9=Echo
EXTD=
EXTT0=
EXTT1=
EXTT2=
EXTT3=
EXTT4=
EXTT5=
EXTT6=
EXTT7=
EXTT8=
EXTT9=
PLAYORDER=
